<svg xmlns="http://www.w3.org/2000/svg" xmlns:xlink="http://www.w3.org/1999/xlink" width="150" zoomAndPan="magnify" viewBox="0 0 112.5 262.500001" height="350" preserveAspectRatio="xMidYMid meet" version="1.0"><defs><g/><clipPath id="9d42037ac0"><path d="M 0 0.332031 L 112.003906 0.332031 L 112.003906 261.671875 L 0 261.671875 Z M 0 0.332031 " clip-rule="nonzero"/></clipPath></defs><g clip-path="url(#9d42037ac0)"><path fill="#ffffff" d="M 0 0.332031 L 112.5 0.332031 L 112.5 262.832031 L 0 262.832031 Z M 0 0.332031 " fill-opacity="1" fill-rule="nonzero"/><path fill="#ffde59" d="M 0 0.332031 L 112.5 0.332031 L 112.5 262.832031 L 0 262.832031 Z M 0 0.332031 " fill-opacity="1" fill-rule="nonzero"/></g><path fill="#ffffff" d="M 89.375 182.851562 C 83.359375 177.730469 75.386719 176.410156 68.375 178.652344 C 69.464844 171.371094 66.890625 163.710938 60.875 158.589844 C 51.609375 150.703125 37.710938 151.820312 29.824219 161.085938 C 11.257812 182.910156 26.609375 227.742188 26.609375 227.742188 C 26.609375 227.742188 71.15625 238.257812 91.871094 213.910156 C 99.757812 204.644531 98.640625 190.738281 89.375 182.851562 " fill-opacity="1" fill-rule="nonzero"/><path fill="#ff66c4" d="M 29.042969 204.96875 L 29.058594 204.945312 C 25.550781 204.589844 22.121094 202.5 21.023438 200.25 C 22.335938 215.25 26.609375 227.742188 26.609375 227.742188 C 26.609375 227.742188 28.117188 228.097656 30.703125 228.523438 C 29.117188 220.863281 24.398438 212.480469 29.042969 204.96875 " fill-opacity="1" fill-rule="nonzero"/><path fill="#ff66c4" d="M 89.375 182.851562 C 83.359375 177.730469 75.386719 176.410156 68.375 178.652344 C 69.464844 171.371094 66.890625 163.710938 60.875 158.589844 C 51.609375 150.703125 37.710938 151.820312 29.824219 161.085938 C 21.304688 171.101562 19.929688 185.964844 20.933594 199.113281 C 24.714844 198.929688 25.902344 192.539062 26.246094 186.964844 C 26.117188 188.847656 24.113281 187.585938 24.113281 187.585938 C 24.113281 187.585938 25.214844 186.925781 25.261719 181.351562 C 25.3125 175.160156 29.492188 170.417969 37.550781 169.019531 C 41.578125 168.324219 47.839844 171.667969 49.664062 174.722656 C 52.808594 175.808594 48.960938 180.890625 48.957031 180.898438 C 48.871094 181.546875 48.8125 182.136719 48.871094 182.410156 C 48.917969 182.613281 49.808594 182.308594 49.863281 181.898438 C 49.882812 181.992188 49.902344 182.585938 49.183594 183.019531 C 49.386719 184.039062 50.992188 185.90625 51.96875 186.539062 C 52.28125 186.742188 52.519531 187.652344 52.105469 187.867188 C 51.738281 188.054688 51.078125 188.1875 51.078125 188.1875 C 51.078125 188.1875 50.949219 188.914062 51.710938 189.4375 C 51.515625 189.761719 50.753906 189.871094 50.753906 189.871094 C 50.753906 189.871094 50.933594 189.945312 51.371094 190.078125 C 51.867188 191.007812 50.574219 191.355469 50.574219 191.355469 C 50.574219 191.355469 49.804688 191.703125 50.109375 193.09375 C 50.382812 194.320312 48.933594 195.898438 46.683594 195.296875 C 43.996094 194.578125 42.5625 195.921875 42.5625 195.921875 C 42.5625 195.921875 41.726562 198.929688 41.9375 200.621094 C 42.203125 202.792969 43.539062 204.90625 44.960938 206.683594 C 45.617188 207.503906 46.285156 208.25 46.882812 208.898438 C 48.199219 207.433594 49.4375 207.507812 49.4375 207.507812 C 49.4375 207.507812 49.585938 206.703125 49.25 206.265625 C 48.445312 205.222656 46.425781 204.859375 46.203125 203.394531 C 45.972656 201.902344 46.519531 202.316406 46.417969 201.574219 C 46.378906 201.269531 45.972656 200.917969 46.367188 200.617188 C 46.484375 200.53125 47.09375 200.804688 47.09375 200.804688 C 47.09375 200.804688 46.53125 200.453125 46.496094 200.078125 C 46.457031 199.703125 46.894531 199.542969 46.699219 199.117188 C 46.527344 198.742188 46.28125 197.765625 46.949219 197.78125 C 47.917969 197.804688 48.65625 197.503906 48.972656 196.570312 C 48.753906 196.339844 48.675781 195.820312 48.71875 195.734375 C 48.6875 196.148438 49.316406 196.226562 49.398438 196.039062 C 49.691406 195.386719 49.523438 195.121094 50.503906 194.035156 C 50.636719 193.886719 50.769531 193.757812 50.894531 193.644531 C 50.976562 193.5 51.058594 193.355469 51.152344 193.199219 C 51.460938 190.570312 53.097656 188.703125 54.671875 190.003906 C 57.210938 192.089844 60.824219 189.296875 64.097656 194.816406 C 65.261719 196.78125 63.976562 202.296875 61.636719 204.730469 C 59.472656 206.980469 56.375 207.023438 54.078125 206.949219 C 54.167969 207.558594 54.367188 208.179688 54.757812 208.648438 C 56.039062 211.875 55.820312 215.882812 55.253906 218.429688 C 55.402344 218.519531 55.558594 218.613281 55.726562 218.707031 C 57.011719 219.402344 53.679688 225.386719 50.210938 229.984375 C 64.1875 229.746094 81.195312 226.460938 91.871094 213.910156 C 99.757812 204.644531 98.640625 190.738281 89.375 182.851562 " fill-opacity="1" fill-rule="nonzero"/><path fill="#ff66c4" d="M 49.164062 178.492188 L 49.167969 178.457031 L 49.160156 178.46875 Z M 49.164062 178.492188 " fill-opacity="1" fill-rule="nonzero"/><g fill="#5271ff" fill-opacity="1"><g transform="translate(23.634387, 80.170929)"><g><path d="M 25.328125 -1.046875 C 25.421875 -0.867188 25.46875 -0.691406 25.46875 -0.515625 C 25.46875 -0.171875 25.265625 0 24.859375 0 L 18.21875 0 C 17.613281 0 17.207031 -0.226562 17 -0.6875 L 12.859375 -10.125 C 12.765625 -10.269531 12.671875 -10.34375 12.578125 -10.34375 C 12.460938 -10.34375 12.304688 -10.21875 12.109375 -9.96875 L 9.6875 -6.875 C 9.550781 -6.707031 9.484375 -6.457031 9.484375 -6.125 L 9.484375 -0.984375 C 9.484375 -0.617188 9.390625 -0.363281 9.203125 -0.21875 C 9.023438 -0.0703125 8.742188 0 8.359375 0 L 2.6875 0 C 2.34375 0 2.101562 -0.0664062 1.96875 -0.203125 C 1.832031 -0.335938 1.765625 -0.550781 1.765625 -0.84375 L 1.765625 -24.453125 C 1.765625 -24.691406 1.820312 -24.878906 1.9375 -25.015625 C 2.050781 -25.160156 2.207031 -25.234375 2.40625 -25.234375 L 8.875 -25.234375 C 9.28125 -25.234375 9.484375 -24.992188 9.484375 -24.515625 L 9.484375 -15.90625 C 9.484375 -15.632812 9.539062 -15.5 9.65625 -15.5 C 9.75 -15.5 9.863281 -15.578125 10 -15.734375 L 16.25 -24.515625 C 16.457031 -24.785156 16.65625 -24.972656 16.84375 -25.078125 C 17.039062 -25.179688 17.332031 -25.234375 17.71875 -25.234375 L 22.875 -25.234375 C 23.15625 -25.234375 23.375 -25.179688 23.53125 -25.078125 C 23.6875 -24.972656 23.765625 -24.832031 23.765625 -24.65625 C 23.765625 -24.488281 23.707031 -24.347656 23.59375 -24.234375 L 18.015625 -17.40625 C 17.859375 -17.226562 17.78125 -17.035156 17.78125 -16.828125 C 17.78125 -16.671875 17.828125 -16.5 17.921875 -16.3125 Z M 25.328125 -1.046875 "/></g></g></g><g fill="#5271ff" fill-opacity="1"><g transform="translate(49.879384, 80.170929)"><g><path d="M 8.875 -25.234375 C 9.28125 -25.234375 9.484375 -24.992188 9.484375 -24.515625 L 9.484375 -0.984375 C 9.484375 -0.617188 9.390625 -0.363281 9.203125 -0.21875 C 9.023438 -0.0703125 8.742188 0 8.359375 0 L 2.6875 0 C 2.34375 0 2.101562 -0.0664062 1.96875 -0.203125 C 1.832031 -0.335938 1.765625 -0.550781 1.765625 -0.84375 L 1.765625 -24.453125 C 1.765625 -24.691406 1.820312 -24.878906 1.9375 -25.015625 C 2.050781 -25.160156 2.207031 -25.234375 2.40625 -25.234375 Z M 8.875 -25.234375 "/></g></g></g><g fill="#5271ff" fill-opacity="1"><g transform="translate(61.132095, 80.170929)"><g><path d="M 1.46875 0 C 1.28125 0 1.128906 -0.0625 1.015625 -0.1875 C 0.898438 -0.3125 0.84375 -0.488281 0.84375 -0.71875 C 0.84375 -0.875 0.878906 -1.054688 0.953125 -1.265625 L 9.1875 -24.453125 C 9.289062 -24.742188 9.410156 -24.945312 9.546875 -25.0625 C 9.691406 -25.175781 9.910156 -25.234375 10.203125 -25.234375 L 16.890625 -25.234375 C 17.171875 -25.234375 17.414062 -25.144531 17.625 -24.96875 C 17.84375 -24.800781 18.007812 -24.582031 18.125 -24.3125 L 26.28125 -1.15625 C 26.320312 -0.976562 26.34375 -0.84375 26.34375 -0.75 C 26.34375 -0.539062 26.296875 -0.363281 26.203125 -0.21875 C 26.117188 -0.0703125 25.988281 0 25.8125 0 L 19.140625 0 C 18.753906 0 18.503906 -0.191406 18.390625 -0.578125 L 17.0625 -4.484375 C 17 -4.640625 16.9375 -4.742188 16.875 -4.796875 C 16.820312 -4.859375 16.71875 -4.890625 16.5625 -4.890625 L 9.34375 -4.890625 C 9.070312 -4.890625 8.90625 -4.765625 8.84375 -4.515625 L 7.453125 -0.515625 C 7.304688 -0.171875 7.03125 0 6.625 0 Z M 14.859375 -10.671875 C 15.109375 -10.671875 15.234375 -10.785156 15.234375 -11.015625 C 15.234375 -11.054688 15.207031 -11.171875 15.15625 -11.359375 L 13.125 -17.171875 C 13.082031 -17.285156 13.015625 -17.34375 12.921875 -17.34375 C 12.828125 -17.34375 12.757812 -17.285156 12.71875 -17.171875 L 10.640625 -11.390625 C 10.597656 -11.296875 10.578125 -11.179688 10.578125 -11.046875 C 10.578125 -10.796875 10.710938 -10.671875 10.984375 -10.671875 Z M 14.859375 -10.671875 "/></g></g></g><g fill="#5271ff" fill-opacity="1"><g transform="translate(12.364049, 47.278191)"><g><path d="M 18 -0.75 C 18.0625 -0.625 18.09375 -0.492188 18.09375 -0.359375 C 18.09375 -0.117188 17.945312 0 17.65625 0 L 12.953125 0 C 12.515625 0 12.222656 -0.160156 12.078125 -0.484375 L 9.125 -7.203125 C 9.0625 -7.296875 9 -7.34375 8.9375 -7.34375 C 8.851562 -7.34375 8.738281 -7.253906 8.59375 -7.078125 L 6.890625 -4.875 C 6.785156 -4.757812 6.734375 -4.582031 6.734375 -4.34375 L 6.734375 -0.703125 C 6.734375 -0.441406 6.671875 -0.257812 6.546875 -0.15625 C 6.421875 -0.0507812 6.21875 0 5.9375 0 L 1.90625 0 C 1.664062 0 1.492188 -0.046875 1.390625 -0.140625 C 1.296875 -0.242188 1.25 -0.398438 1.25 -0.609375 L 1.25 -17.375 C 1.25 -17.550781 1.289062 -17.6875 1.375 -17.78125 C 1.457031 -17.875 1.570312 -17.921875 1.71875 -17.921875 L 6.3125 -17.921875 C 6.59375 -17.921875 6.734375 -17.753906 6.734375 -17.421875 L 6.734375 -11.3125 C 6.734375 -11.113281 6.773438 -11.015625 6.859375 -11.015625 C 6.921875 -11.015625 7.003906 -11.070312 7.109375 -11.1875 L 11.546875 -17.421875 C 11.691406 -17.609375 11.832031 -17.738281 11.96875 -17.8125 C 12.101562 -17.882812 12.304688 -17.921875 12.578125 -17.921875 L 16.25 -17.921875 C 16.445312 -17.921875 16.601562 -17.882812 16.71875 -17.8125 C 16.832031 -17.738281 16.890625 -17.640625 16.890625 -17.515625 C 16.890625 -17.398438 16.847656 -17.300781 16.765625 -17.21875 L 12.796875 -12.375 C 12.691406 -12.238281 12.640625 -12.097656 12.640625 -11.953125 C 12.640625 -11.835938 12.671875 -11.71875 12.734375 -11.59375 Z M 18 -0.75 "/></g></g></g><g fill="#5271ff" fill-opacity="1"><g transform="translate(31.010941, 47.278191)"><g><path d="M 1.25 -17.375 C 1.25 -17.550781 1.289062 -17.6875 1.375 -17.78125 C 1.457031 -17.875 1.570312 -17.921875 1.71875 -17.921875 L 6.3125 -17.921875 C 6.59375 -17.921875 6.734375 -17.753906 6.734375 -17.421875 L 6.734375 -4.296875 C 6.734375 -4.171875 6.753906 -4.082031 6.796875 -4.03125 C 6.835938 -3.988281 6.914062 -3.96875 7.03125 -3.96875 L 14.296875 -3.96875 C 14.671875 -3.96875 14.859375 -3.8125 14.859375 -3.5 L 14.859375 -0.53125 C 14.859375 -0.375 14.804688 -0.242188 14.703125 -0.140625 C 14.597656 -0.046875 14.445312 0 14.25 0 L 1.90625 0 C 1.664062 0 1.492188 -0.046875 1.390625 -0.140625 C 1.296875 -0.242188 1.25 -0.398438 1.25 -0.609375 Z M 1.25 -17.375 "/></g></g></g><g fill="#5271ff" fill-opacity="1"><g transform="translate(46.541963, 47.278191)"><g><path d="M 6.3125 -17.921875 C 6.59375 -17.921875 6.734375 -17.753906 6.734375 -17.421875 L 6.734375 -0.703125 C 6.734375 -0.441406 6.671875 -0.257812 6.546875 -0.15625 C 6.421875 -0.0507812 6.21875 0 5.9375 0 L 1.90625 0 C 1.664062 0 1.492188 -0.046875 1.390625 -0.140625 C 1.296875 -0.242188 1.25 -0.398438 1.25 -0.609375 L 1.25 -17.375 C 1.25 -17.550781 1.289062 -17.6875 1.375 -17.78125 C 1.457031 -17.875 1.570312 -17.921875 1.71875 -17.921875 Z M 6.3125 -17.921875 "/></g></g></g><g fill="#5271ff" fill-opacity="1"><g transform="translate(54.536939, 47.278191)"><g><path d="M 16.765625 -17.921875 C 17.003906 -17.921875 17.125 -17.785156 17.125 -17.515625 L 17.125 -0.4375 C 17.125 -0.300781 17.070312 -0.191406 16.96875 -0.109375 C 16.863281 -0.0351562 16.734375 0 16.578125 0 L 13.265625 0 C 13.117188 0 13 -0.0195312 12.90625 -0.0625 C 12.820312 -0.113281 12.722656 -0.210938 12.609375 -0.359375 L 5.96875 -9.375 C 5.90625 -9.457031 5.847656 -9.488281 5.796875 -9.46875 C 5.742188 -9.445312 5.71875 -9.398438 5.71875 -9.328125 L 5.71875 -0.53125 C 5.738281 -0.332031 5.703125 -0.191406 5.609375 -0.109375 C 5.523438 -0.0351562 5.367188 0 5.140625 0 L 1.859375 0 C 1.453125 0 1.25 -0.160156 1.25 -0.484375 L 1.25 -17.375 C 1.25 -17.738281 1.425781 -17.921875 1.78125 -17.921875 L 5.71875 -17.921875 C 5.9375 -17.921875 6.097656 -17.890625 6.203125 -17.828125 C 6.304688 -17.773438 6.421875 -17.660156 6.546875 -17.484375 L 12.34375 -9.421875 C 12.4375 -9.273438 12.523438 -9.203125 12.609375 -9.203125 C 12.691406 -9.203125 12.734375 -9.304688 12.734375 -9.515625 L 12.734375 -17.421875 C 12.734375 -17.753906 12.910156 -17.921875 13.265625 -17.921875 Z M 16.765625 -17.921875 "/></g></g></g><g fill="#5271ff" fill-opacity="1"><g transform="translate(72.918136, 47.278191)"><g><path d="M 6.3125 -17.921875 C 6.59375 -17.921875 6.734375 -17.753906 6.734375 -17.421875 L 6.734375 -0.703125 C 6.734375 -0.441406 6.671875 -0.257812 6.546875 -0.15625 C 6.421875 -0.0507812 6.21875 0 5.9375 0 L 1.90625 0 C 1.664062 0 1.492188 -0.046875 1.390625 -0.140625 C 1.296875 -0.242188 1.25 -0.398438 1.25 -0.609375 L 1.25 -17.375 C 1.25 -17.550781 1.289062 -17.6875 1.375 -17.78125 C 1.457031 -17.875 1.570312 -17.921875 1.71875 -17.921875 Z M 6.3125 -17.921875 "/></g></g></g><g fill="#5271ff" fill-opacity="1"><g transform="translate(80.913113, 47.278191)"><g><path d="M 18 -0.75 C 18.0625 -0.625 18.09375 -0.492188 18.09375 -0.359375 C 18.09375 -0.117188 17.945312 0 17.65625 0 L 12.953125 0 C 12.515625 0 12.222656 -0.160156 12.078125 -0.484375 L 9.125 -7.203125 C 9.0625 -7.296875 9 -7.34375 8.9375 -7.34375 C 8.851562 -7.34375 8.738281 -7.253906 8.59375 -7.078125 L 6.890625 -4.875 C 6.785156 -4.757812 6.734375 -4.582031 6.734375 -4.34375 L 6.734375 -0.703125 C 6.734375 -0.441406 6.671875 -0.257812 6.546875 -0.15625 C 6.421875 -0.0507812 6.21875 0 5.9375 0 L 1.90625 0 C 1.664062 0 1.492188 -0.046875 1.390625 -0.140625 C 1.296875 -0.242188 1.25 -0.398438 1.25 -0.609375 L 1.25 -17.375 C 1.25 -17.550781 1.289062 -17.6875 1.375 -17.78125 C 1.457031 -17.875 1.570312 -17.921875 1.71875 -17.921875 L 6.3125 -17.921875 C 6.59375 -17.921875 6.734375 -17.753906 6.734375 -17.421875 L 6.734375 -11.3125 C 6.734375 -11.113281 6.773438 -11.015625 6.859375 -11.015625 C 6.921875 -11.015625 7.003906 -11.070312 7.109375 -11.1875 L 11.546875 -17.421875 C 11.691406 -17.609375 11.832031 -17.738281 11.96875 -17.8125 C 12.101562 -17.882812 12.304688 -17.921875 12.578125 -17.921875 L 16.25 -17.921875 C 16.445312 -17.921875 16.601562 -17.882812 16.71875 -17.8125 C 16.832031 -17.738281 16.890625 -17.640625 16.890625 -17.515625 C 16.890625 -17.398438 16.847656 -17.300781 16.765625 -17.21875 L 12.796875 -12.375 C 12.691406 -12.238281 12.640625 -12.097656 12.640625 -11.953125 C 12.640625 -11.835938 12.671875 -11.71875 12.734375 -11.59375 Z M 18 -0.75 "/></g></g></g></svg>