<svg xmlns="http://www.w3.org/2000/svg" xmlns:xlink="http://www.w3.org/1999/xlink" width="150" zoomAndPan="magnify" viewBox="0 0 112.5 262.500001" height="350" preserveAspectRatio="xMidYMid meet" version="1.0"><defs><g/><clipPath id="293aad436f"><path d="M 0 0.332031 L 112.003906 0.332031 L 112.003906 261.671875 L 0 261.671875 Z M 0 0.332031 " clip-rule="nonzero"/></clipPath><clipPath id="bf5cdeabbd"><path d="M 8.546875 137 L 92 137 L 92 160 L 8.546875 160 Z M 8.546875 137 " clip-rule="nonzero"/></clipPath><clipPath id="b7db7b2188"><path d="M 79 119.8125 L 103.796875 119.8125 L 103.796875 145 L 79 145 Z M 79 119.8125 " clip-rule="nonzero"/></clipPath></defs><g clip-path="url(#293aad436f)"><path fill="#ffffff" d="M 0 0.332031 L 112.5 0.332031 L 112.5 262.832031 L 0 262.832031 Z M 0 0.332031 " fill-opacity="1" fill-rule="nonzero"/><path fill="#7ed957" d="M 0 0.332031 L 112.5 0.332031 L 112.5 262.832031 L 0 262.832031 Z M 0 0.332031 " fill-opacity="1" fill-rule="nonzero"/></g><g fill="#ffffff" fill-opacity="1"><g transform="translate(20.80046, 62.222365)"><g><path d="M 12.234375 0.328125 C 10.003906 0.328125 8.035156 -0.1875 6.328125 -1.21875 C 4.617188 -2.25 3.296875 -3.679688 2.359375 -5.515625 C 1.429688 -7.359375 0.96875 -9.46875 0.96875 -11.84375 C 0.96875 -14.289062 1.457031 -16.445312 2.4375 -18.3125 C 3.425781 -20.1875 4.804688 -21.640625 6.578125 -22.671875 C 8.359375 -23.703125 10.382812 -24.21875 12.65625 -24.21875 C 14.5 -24.21875 16.144531 -23.878906 17.59375 -23.203125 C 19.039062 -22.523438 20.210938 -21.648438 21.109375 -20.578125 C 22.003906 -19.503906 22.585938 -18.367188 22.859375 -17.171875 C 22.921875 -16.910156 22.953125 -16.703125 22.953125 -16.546875 C 22.953125 -16.359375 22.910156 -16.226562 22.828125 -16.15625 C 22.742188 -16.09375 22.601562 -16.050781 22.40625 -16.03125 L 16.90625 -15.203125 C 16.664062 -15.203125 16.515625 -15.242188 16.453125 -15.328125 C 16.390625 -15.410156 16.328125 -15.582031 16.265625 -15.84375 C 16.085938 -16.832031 15.679688 -17.640625 15.046875 -18.265625 C 14.421875 -18.898438 13.570312 -19.21875 12.5 -19.21875 C 11.226562 -19.21875 10.265625 -18.675781 9.609375 -17.59375 C 8.953125 -16.507812 8.625 -14.660156 8.625 -12.046875 C 8.625 -9.296875 8.976562 -7.382812 9.6875 -6.3125 C 10.394531 -5.238281 11.414062 -4.703125 12.75 -4.703125 C 14.488281 -4.703125 15.648438 -5.453125 16.234375 -6.953125 L 16.328125 -7.25 L 16.390625 -7.5 C 16.390625 -7.695312 16.269531 -7.796875 16.03125 -7.796875 L 13.015625 -7.796875 C 12.773438 -7.796875 12.601562 -7.847656 12.5 -7.953125 C 12.40625 -8.054688 12.359375 -8.238281 12.359375 -8.5 L 12.359375 -11.59375 C 12.359375 -11.957031 12.585938 -12.140625 13.046875 -12.140625 L 22.0625 -12.078125 C 22.445312 -12.078125 22.742188 -11.984375 22.953125 -11.796875 C 23.171875 -11.617188 23.28125 -11.378906 23.28125 -11.078125 L 23.28125 -0.546875 C 23.28125 -0.398438 23.222656 -0.269531 23.109375 -0.15625 C 23.003906 -0.0507812 22.878906 0 22.734375 0 L 21.515625 0 C 21.128906 0 20.785156 -0.203125 20.484375 -0.609375 L 19.1875 -2.484375 C 19.164062 -2.546875 19.125 -2.578125 19.0625 -2.578125 C 19.019531 -2.578125 18.945312 -2.523438 18.84375 -2.421875 C 18.28125 -1.878906 17.742188 -1.425781 17.234375 -1.0625 C 16.734375 -0.695312 16.0625 -0.375 15.21875 -0.09375 C 14.382812 0.1875 13.390625 0.328125 12.234375 0.328125 Z M 12.234375 0.328125 "/></g></g></g><g fill="#ffffff" fill-opacity="1"><g transform="translate(45.306315, 62.222365)"><g><path d="M 8.40625 -23.890625 C 8.789062 -23.890625 8.984375 -23.664062 8.984375 -23.21875 L 8.984375 -0.9375 C 8.984375 -0.59375 8.894531 -0.347656 8.71875 -0.203125 C 8.550781 -0.0664062 8.285156 0 7.921875 0 L 2.546875 0 C 2.222656 0 1.992188 -0.0625 1.859375 -0.1875 C 1.734375 -0.320312 1.671875 -0.53125 1.671875 -0.8125 L 1.671875 -23.15625 C 1.671875 -23.394531 1.722656 -23.578125 1.828125 -23.703125 C 1.941406 -23.828125 2.09375 -23.890625 2.28125 -23.890625 Z M 8.40625 -23.890625 "/></g></g></g><g fill="#ffffff" fill-opacity="1"><g transform="translate(55.965233, 62.222365)"><g><path d="M 12.234375 0.328125 C 10.003906 0.328125 8.035156 -0.1875 6.328125 -1.21875 C 4.617188 -2.25 3.296875 -3.679688 2.359375 -5.515625 C 1.429688 -7.359375 0.96875 -9.46875 0.96875 -11.84375 C 0.96875 -14.289062 1.457031 -16.445312 2.4375 -18.3125 C 3.425781 -20.1875 4.804688 -21.640625 6.578125 -22.671875 C 8.359375 -23.703125 10.382812 -24.21875 12.65625 -24.21875 C 14.5 -24.21875 16.144531 -23.878906 17.59375 -23.203125 C 19.039062 -22.523438 20.210938 -21.648438 21.109375 -20.578125 C 22.003906 -19.503906 22.585938 -18.367188 22.859375 -17.171875 C 22.921875 -16.910156 22.953125 -16.703125 22.953125 -16.546875 C 22.953125 -16.359375 22.910156 -16.226562 22.828125 -16.15625 C 22.742188 -16.09375 22.601562 -16.050781 22.40625 -16.03125 L 16.90625 -15.203125 C 16.664062 -15.203125 16.515625 -15.242188 16.453125 -15.328125 C 16.390625 -15.410156 16.328125 -15.582031 16.265625 -15.84375 C 16.085938 -16.832031 15.679688 -17.640625 15.046875 -18.265625 C 14.421875 -18.898438 13.570312 -19.21875 12.5 -19.21875 C 11.226562 -19.21875 10.265625 -18.675781 9.609375 -17.59375 C 8.953125 -16.507812 8.625 -14.660156 8.625 -12.046875 C 8.625 -9.296875 8.976562 -7.382812 9.6875 -6.3125 C 10.394531 -5.238281 11.414062 -4.703125 12.75 -4.703125 C 14.488281 -4.703125 15.648438 -5.453125 16.234375 -6.953125 L 16.328125 -7.25 L 16.390625 -7.5 C 16.390625 -7.695312 16.269531 -7.796875 16.03125 -7.796875 L 13.015625 -7.796875 C 12.773438 -7.796875 12.601562 -7.847656 12.5 -7.953125 C 12.40625 -8.054688 12.359375 -8.238281 12.359375 -8.5 L 12.359375 -11.59375 C 12.359375 -11.957031 12.585938 -12.140625 13.046875 -12.140625 L 22.0625 -12.078125 C 22.445312 -12.078125 22.742188 -11.984375 22.953125 -11.796875 C 23.171875 -11.617188 23.28125 -11.378906 23.28125 -11.078125 L 23.28125 -0.546875 C 23.28125 -0.398438 23.222656 -0.269531 23.109375 -0.15625 C 23.003906 -0.0507812 22.878906 0 22.734375 0 L 21.515625 0 C 21.128906 0 20.785156 -0.203125 20.484375 -0.609375 L 19.1875 -2.484375 C 19.164062 -2.546875 19.125 -2.578125 19.0625 -2.578125 C 19.019531 -2.578125 18.945312 -2.523438 18.84375 -2.421875 C 18.28125 -1.878906 17.742188 -1.425781 17.234375 -1.0625 C 16.734375 -0.695312 16.0625 -0.375 15.21875 -0.09375 C 14.382812 0.1875 13.390625 0.328125 12.234375 0.328125 Z M 12.234375 0.328125 "/></g></g></g><g fill="#ffffff" fill-opacity="1"><g transform="translate(80.471088, 62.222365)"><g><path d="M 8.40625 -23.890625 C 8.789062 -23.890625 8.984375 -23.664062 8.984375 -23.21875 L 8.984375 -0.9375 C 8.984375 -0.59375 8.894531 -0.347656 8.71875 -0.203125 C 8.550781 -0.0664062 8.285156 0 7.921875 0 L 2.546875 0 C 2.222656 0 1.992188 -0.0625 1.859375 -0.1875 C 1.734375 -0.320312 1.671875 -0.53125 1.671875 -0.8125 L 1.671875 -23.15625 C 1.671875 -23.394531 1.722656 -23.578125 1.828125 -23.703125 C 1.941406 -23.828125 2.09375 -23.890625 2.28125 -23.890625 Z M 8.40625 -23.890625 "/></g></g></g><g fill="#ffffff" fill-opacity="1"><g transform="translate(12.364049, 30.835775)"><g><path d="M 18 -0.75 C 18.0625 -0.625 18.09375 -0.492188 18.09375 -0.359375 C 18.09375 -0.117188 17.945312 0 17.65625 0 L 12.953125 0 C 12.515625 0 12.222656 -0.160156 12.078125 -0.484375 L 9.125 -7.203125 C 9.0625 -7.296875 9 -7.34375 8.9375 -7.34375 C 8.851562 -7.34375 8.738281 -7.253906 8.59375 -7.078125 L 6.890625 -4.875 C 6.785156 -4.757812 6.734375 -4.582031 6.734375 -4.34375 L 6.734375 -0.703125 C 6.734375 -0.441406 6.671875 -0.257812 6.546875 -0.15625 C 6.421875 -0.0507812 6.21875 0 5.9375 0 L 1.90625 0 C 1.664062 0 1.492188 -0.046875 1.390625 -0.140625 C 1.296875 -0.242188 1.25 -0.398438 1.25 -0.609375 L 1.25 -17.375 C 1.25 -17.550781 1.289062 -17.6875 1.375 -17.78125 C 1.457031 -17.875 1.570312 -17.921875 1.71875 -17.921875 L 6.3125 -17.921875 C 6.59375 -17.921875 6.734375 -17.753906 6.734375 -17.421875 L 6.734375 -11.3125 C 6.734375 -11.113281 6.773438 -11.015625 6.859375 -11.015625 C 6.921875 -11.015625 7.003906 -11.070312 7.109375 -11.1875 L 11.546875 -17.421875 C 11.691406 -17.609375 11.832031 -17.738281 11.96875 -17.8125 C 12.101562 -17.882812 12.304688 -17.921875 12.578125 -17.921875 L 16.25 -17.921875 C 16.445312 -17.921875 16.601562 -17.882812 16.71875 -17.8125 C 16.832031 -17.738281 16.890625 -17.640625 16.890625 -17.515625 C 16.890625 -17.398438 16.847656 -17.300781 16.765625 -17.21875 L 12.796875 -12.375 C 12.691406 -12.238281 12.640625 -12.097656 12.640625 -11.953125 C 12.640625 -11.835938 12.671875 -11.71875 12.734375 -11.59375 Z M 18 -0.75 "/></g></g></g><g fill="#ffffff" fill-opacity="1"><g transform="translate(31.010941, 30.835775)"><g><path d="M 1.25 -17.375 C 1.25 -17.550781 1.289062 -17.6875 1.375 -17.78125 C 1.457031 -17.875 1.570312 -17.921875 1.71875 -17.921875 L 6.3125 -17.921875 C 6.59375 -17.921875 6.734375 -17.753906 6.734375 -17.421875 L 6.734375 -4.296875 C 6.734375 -4.171875 6.753906 -4.082031 6.796875 -4.03125 C 6.835938 -3.988281 6.914062 -3.96875 7.03125 -3.96875 L 14.296875 -3.96875 C 14.671875 -3.96875 14.859375 -3.8125 14.859375 -3.5 L 14.859375 -0.53125 C 14.859375 -0.375 14.804688 -0.242188 14.703125 -0.140625 C 14.597656 -0.046875 14.445312 0 14.25 0 L 1.90625 0 C 1.664062 0 1.492188 -0.046875 1.390625 -0.140625 C 1.296875 -0.242188 1.25 -0.398438 1.25 -0.609375 Z M 1.25 -17.375 "/></g></g></g><g fill="#ffffff" fill-opacity="1"><g transform="translate(46.541963, 30.835775)"><g><path d="M 6.3125 -17.921875 C 6.59375 -17.921875 6.734375 -17.753906 6.734375 -17.421875 L 6.734375 -0.703125 C 6.734375 -0.441406 6.671875 -0.257812 6.546875 -0.15625 C 6.421875 -0.0507812 6.21875 0 5.9375 0 L 1.90625 0 C 1.664062 0 1.492188 -0.046875 1.390625 -0.140625 C 1.296875 -0.242188 1.25 -0.398438 1.25 -0.609375 L 1.25 -17.375 C 1.25 -17.550781 1.289062 -17.6875 1.375 -17.78125 C 1.457031 -17.875 1.570312 -17.921875 1.71875 -17.921875 Z M 6.3125 -17.921875 "/></g></g></g><g fill="#ffffff" fill-opacity="1"><g transform="translate(54.536939, 30.835775)"><g><path d="M 16.765625 -17.921875 C 17.003906 -17.921875 17.125 -17.785156 17.125 -17.515625 L 17.125 -0.4375 C 17.125 -0.300781 17.070312 -0.191406 16.96875 -0.109375 C 16.863281 -0.0351562 16.734375 0 16.578125 0 L 13.265625 0 C 13.117188 0 13 -0.0195312 12.90625 -0.0625 C 12.820312 -0.113281 12.722656 -0.210938 12.609375 -0.359375 L 5.96875 -9.375 C 5.90625 -9.457031 5.847656 -9.488281 5.796875 -9.46875 C 5.742188 -9.445312 5.71875 -9.398438 5.71875 -9.328125 L 5.71875 -0.53125 C 5.738281 -0.332031 5.703125 -0.191406 5.609375 -0.109375 C 5.523438 -0.0351562 5.367188 0 5.140625 0 L 1.859375 0 C 1.453125 0 1.25 -0.160156 1.25 -0.484375 L 1.25 -17.375 C 1.25 -17.738281 1.425781 -17.921875 1.78125 -17.921875 L 5.71875 -17.921875 C 5.9375 -17.921875 6.097656 -17.890625 6.203125 -17.828125 C 6.304688 -17.773438 6.421875 -17.660156 6.546875 -17.484375 L 12.34375 -9.421875 C 12.4375 -9.273438 12.523438 -9.203125 12.609375 -9.203125 C 12.691406 -9.203125 12.734375 -9.304688 12.734375 -9.515625 L 12.734375 -17.421875 C 12.734375 -17.753906 12.910156 -17.921875 13.265625 -17.921875 Z M 16.765625 -17.921875 "/></g></g></g><g fill="#ffffff" fill-opacity="1"><g transform="translate(72.918136, 30.835775)"><g><path d="M 6.3125 -17.921875 C 6.59375 -17.921875 6.734375 -17.753906 6.734375 -17.421875 L 6.734375 -0.703125 C 6.734375 -0.441406 6.671875 -0.257812 6.546875 -0.15625 C 6.421875 -0.0507812 6.21875 0 5.9375 0 L 1.90625 0 C 1.664062 0 1.492188 -0.046875 1.390625 -0.140625 C 1.296875 -0.242188 1.25 -0.398438 1.25 -0.609375 L 1.25 -17.375 C 1.25 -17.550781 1.289062 -17.6875 1.375 -17.78125 C 1.457031 -17.875 1.570312 -17.921875 1.71875 -17.921875 Z M 6.3125 -17.921875 "/></g></g></g><g fill="#ffffff" fill-opacity="1"><g transform="translate(80.913113, 30.835775)"><g><path d="M 18 -0.75 C 18.0625 -0.625 18.09375 -0.492188 18.09375 -0.359375 C 18.09375 -0.117188 17.945312 0 17.65625 0 L 12.953125 0 C 12.515625 0 12.222656 -0.160156 12.078125 -0.484375 L 9.125 -7.203125 C 9.0625 -7.296875 9 -7.34375 8.9375 -7.34375 C 8.851562 -7.34375 8.738281 -7.253906 8.59375 -7.078125 L 6.890625 -4.875 C 6.785156 -4.757812 6.734375 -4.582031 6.734375 -4.34375 L 6.734375 -0.703125 C 6.734375 -0.441406 6.671875 -0.257812 6.546875 -0.15625 C 6.421875 -0.0507812 6.21875 0 5.9375 0 L 1.90625 0 C 1.664062 0 1.492188 -0.046875 1.390625 -0.140625 C 1.296875 -0.242188 1.25 -0.398438 1.25 -0.609375 L 1.25 -17.375 C 1.25 -17.550781 1.289062 -17.6875 1.375 -17.78125 C 1.457031 -17.875 1.570312 -17.921875 1.71875 -17.921875 L 6.3125 -17.921875 C 6.59375 -17.921875 6.734375 -17.753906 6.734375 -17.421875 L 6.734375 -11.3125 C 6.734375 -11.113281 6.773438 -11.015625 6.859375 -11.015625 C 6.921875 -11.015625 7.003906 -11.070312 7.109375 -11.1875 L 11.546875 -17.421875 C 11.691406 -17.609375 11.832031 -17.738281 11.96875 -17.8125 C 12.101562 -17.882812 12.304688 -17.921875 12.578125 -17.921875 L 16.25 -17.921875 C 16.445312 -17.921875 16.601562 -17.882812 16.71875 -17.8125 C 16.832031 -17.738281 16.890625 -17.640625 16.890625 -17.515625 C 16.890625 -17.398438 16.847656 -17.300781 16.765625 -17.21875 L 12.796875 -12.375 C 12.691406 -12.238281 12.640625 -12.097656 12.640625 -11.953125 C 12.640625 -11.835938 12.671875 -11.71875 12.734375 -11.59375 Z M 18 -0.75 "/></g></g></g><path fill="#ffec6a" d="M 57.203125 158.21875 C 61.886719 164.667969 49.578125 180.554688 59.332031 177.148438 C 63.714844 175.613281 70.707031 165.65625 73.40625 155.261719 C 68.742188 155.699219 62.644531 158.386719 57.203125 158.21875 " fill-opacity="1" fill-rule="nonzero"/><path fill="#cb6ce6" d="M 73.40625 142.082031 L 66.363281 142.082031 L 66.363281 149.125 L 60.355469 149.125 L 60.355469 142.082031 L 53.316406 142.082031 L 53.316406 136.070312 L 60.355469 136.070312 L 60.355469 129.027344 L 66.363281 129.027344 L 66.363281 136.070312 L 73.40625 136.070312 Z M 64.726562 123.703125 C 57.761719 125.167969 54.640625 131.15625 40.839844 130.285156 C 40.839844 130.285156 50.105469 128.839844 52.542969 125.265625 C 45.179688 126.519531 38.066406 124.320312 35.257812 123.703125 C 22.441406 120.894531 21.09375 134.222656 24.464844 148.304688 C 31.277344 150.667969 40.339844 151.96875 50 151.96875 C 59.671875 151.96875 68.742188 150.664062 75.554688 148.296875 C 78.90625 134.277344 77.542969 121.007812 64.726562 123.703125 " fill-opacity="1" fill-rule="nonzero"/><g clip-path="url(#bf5cdeabbd)"><path fill="#ffec6a" d="M 85.863281 137.382812 C 86.699219 138.46875 87.148438 139.609375 87.148438 140.785156 C 87.148438 147.96875 70.515625 153.792969 50 153.792969 C 29.488281 153.792969 12.855469 147.96875 12.855469 140.785156 C 12.855469 139.609375 13.304688 138.46875 14.144531 137.382812 C 10.589844 139.523438 8.554688 142.011719 8.554688 144.664062 C 8.554688 152.683594 27.113281 159.179688 50 159.179688 C 72.890625 159.179688 91.449219 152.683594 91.449219 144.664062 C 91.449219 142.011719 89.414062 139.523438 85.863281 137.382812 " fill-opacity="1" fill-rule="nonzero"/></g><path fill="#ffec6a" d="M 42.148438 159.371094 C 42.199219 159.246094 42.246094 159.117188 42.289062 158.984375 C 42.292969 158.96875 42.960938 157.359375 42.96875 157.339844 C 37.394531 156.976562 31.554688 157.804688 27.007812 156.742188 C 30.640625 166.761719 36.058594 175.542969 40.652344 177.148438 C 49.867188 180.363281 39.390625 166.367188 42.148438 159.371094 " fill-opacity="1" fill-rule="nonzero"/><g clip-path="url(#b7db7b2188)"><path fill="#cb6ce6" d="M 103.769531 128.765625 C 92.421875 131.191406 91.769531 130.816406 88.082031 119.804688 C 90.503906 131.164062 90.132812 131.816406 79.128906 135.503906 C 90.476562 133.082031 91.128906 133.453125 94.816406 144.464844 C 92.394531 133.109375 92.765625 132.457031 103.769531 128.765625 " fill-opacity="1" fill-rule="nonzero"/></g></svg>