<svg xmlns="http://www.w3.org/2000/svg" xmlns:xlink="http://www.w3.org/1999/xlink" width="150" zoomAndPan="magnify" viewBox="0 0 112.5 262.500001" height="350" preserveAspectRatio="xMidYMid meet" version="1.0"><defs><g/><clipPath id="f1e7185c11"><path d="M 0 0.332031 L 112.003906 0.332031 L 112.003906 261.671875 L 0 261.671875 Z M 0 0.332031 " clip-rule="nonzero"/></clipPath><clipPath id="21ea91d4f2"><path d="M 17.058594 146 L 96 146 L 96 232 L 17.058594 232 Z M 17.058594 146 " clip-rule="nonzero"/></clipPath><clipPath id="387244d700"><path d="M 62 196 L 103 196 L 103 233.441406 L 62 233.441406 Z M 62 196 " clip-rule="nonzero"/></clipPath></defs><g clip-path="url(#f1e7185c11)"><path fill="#ffffff" d="M 0 0.332031 L 112.5 0.332031 L 112.5 262.832031 L 0 262.832031 Z M 0 0.332031 " fill-opacity="1" fill-rule="nonzero"/><path fill="#5271ff" d="M 0 0.332031 L 112.5 0.332031 L 112.5 262.832031 L 0 262.832031 Z M 0 0.332031 " fill-opacity="1" fill-rule="nonzero"/></g><g clip-path="url(#21ea91d4f2)"><path fill="#ff66c4" d="M 91.867188 158.214844 C 90.40625 157.316406 88.332031 157.945312 87.074219 158.132812 C 85.886719 158.304688 84.683594 158.523438 83.453125 158.621094 C 77.753906 159.046875 70.941406 158.777344 65.578125 155.585938 C 63.535156 154.367188 61.90625 152.53125 60.40625 150.679688 C 59.382812 149.421875 58.445312 146.96875 56.933594 146.410156 C 55.300781 145.808594 54.496094 148.085938 53.695312 149.214844 C 52.726562 150.585938 51.789062 152.023438 50.492188 153.109375 C 48.160156 155.066406 45.441406 156.574219 42.539062 157.441406 C 37.695312 158.898438 33.011719 158.898438 28.296875 158.519531 C 26.3125 158.363281 24.539062 157.75 22.6875 157.390625 C 19.085938 156.722656 19.449219 163.140625 19.128906 164.964844 C 18.628906 167.523438 18.195312 170.070312 17.875 172.609375 C 17.292969 177.21875 17.070312 181.816406 17.550781 186.386719 C 18.300781 193.625 21.054688 200.671875 25.855469 207.191406 C 29.703125 212.40625 34.519531 217.128906 39.476562 221.3125 C 43.09375 224.355469 46.839844 227.199219 50.695312 229.449219 C 52.390625 230.4375 54.121094 231.332031 55.960938 231.75 C 56.054688 231.773438 56.257812 231.859375 56.34375 231.832031 C 57.972656 231.328125 59.484375 230.839844 61.050781 229.984375 C 64.6875 228 68.199219 225.402344 71.609375 222.636719 C 76.5 218.667969 81.289062 214.167969 85.289062 209.199219 C 90.222656 203.054688 93.496094 196.351562 94.722656 189.371094 C 95.636719 184.195312 95.542969 179.027344 94.96875 173.796875 C 94.558594 170.09375 93.59375 166.386719 93.34375 162.683594 C 93.265625 161.484375 93.523438 159.878906 92.488281 158.726562 C 92.296875 158.515625 92.089844 158.347656 91.867188 158.214844 Z M 91.867188 158.214844 " fill-opacity="1" fill-rule="nonzero"/></g><path fill="#737373" d="M 56.230469 225.585938 C 54.761719 225.585938 44.867188 221.761719 35.511719 213.253906 C 29.316406 207.410156 25.164062 201.191406 22.8125 194.238281 C 19.726562 185.113281 19.933594 174.835938 23.421875 163.691406 C 23.429688 163.660156 23.4375 163.628906 23.453125 163.597656 C 23.519531 163.441406 23.683594 163.339844 23.851562 163.339844 C 23.945312 163.339844 24.03125 163.359375 24.421875 163.460938 C 25.691406 163.78125 29.550781 164.757812 34.394531 164.757812 C 40.609375 164.757812 49.402344 163.097656 56.019531 155.171875 C 56.097656 155.074219 56.222656 155.019531 56.347656 155.019531 C 56.472656 155.019531 56.59375 155.074219 56.675781 155.171875 C 62.972656 162.804688 72.21875 164.410156 78.867188 164.410156 C 83.003906 164.410156 86.316406 163.800781 87.566406 163.570312 C 87.988281 163.492188 88.113281 163.46875 88.207031 163.46875 C 88.371094 163.46875 88.542969 163.570312 88.613281 163.71875 C 88.628906 163.75 88.640625 163.785156 88.644531 163.820312 C 92.113281 174.996094 92.339844 185.289062 89.320312 194.410156 C 87.023438 201.363281 82.945312 207.566406 76.863281 213.367188 C 67.191406 222.261719 57.664062 225.585938 56.457031 225.585938 C 56.417969 225.585938 56.382812 225.582031 56.347656 225.578125 C 56.3125 225.582031 56.273438 225.585938 56.230469 225.585938 Z M 56.230469 224.730469 L 56.230469 225.15625 L 56.234375 224.730469 C 56.230469 224.730469 56.230469 224.730469 56.230469 224.730469 Z M 24.136719 164.273438 C 18.179688 183.601562 22.089844 199.417969 36.089844 212.625 C 45.582031 221.257812 54.925781 224.625 56.175781 224.726562 C 56.230469 224.707031 56.296875 224.699219 56.34375 224.691406 C 56.402344 224.691406 56.457031 224.703125 56.507812 224.726562 C 57.761719 224.621094 66.984375 221.289062 76.277344 212.742188 C 89.847656 199.796875 93.765625 183.523438 87.921875 164.375 C 87.859375 164.386719 87.789062 164.398438 87.71875 164.414062 C 86.449219 164.644531 83.078125 165.265625 78.867188 165.265625 C 72.148438 165.265625 62.84375 163.664062 56.34375 156.109375 C 49.558594 163.953125 40.6875 165.617188 34.394531 165.617188 C 29.445312 165.617188 25.507812 164.617188 24.210938 164.289062 C 24.1875 164.285156 24.164062 164.277344 24.136719 164.273438 Z M 24.136719 164.273438 " fill-opacity="1" fill-rule="nonzero"/><path fill="#ffffff" d="M 73.824219 180.503906 C 71.332031 180.214844 68.820312 180 66.308594 179.832031 C 66.347656 177.207031 66.375 174.578125 66.390625 171.953125 C 66.40625 170.363281 65.789062 168.828125 64.671875 167.636719 C 63.507812 166.402344 61.882812 165.660156 60.203125 165.613281 C 57.632812 165.542969 55.058594 165.542969 52.488281 165.613281 C 50.8125 165.65625 49.1875 166.402344 48.023438 167.636719 C 46.902344 168.828125 46.285156 170.359375 46.300781 171.945312 C 46.316406 174.574219 46.347656 177.203125 46.386719 179.832031 C 43.871094 180 41.363281 180.214844 38.867188 180.503906 C 35.5625 180.886719 33.046875 183.828125 33.316406 187.042969 C 33.488281 189.148438 33.675781 191.257812 33.878906 193.371094 C 34.199219 196.652344 37.164062 199.175781 40.539062 198.90625 C 42.621094 198.738281 44.714844 198.609375 46.816406 198.507812 C 46.894531 201.054688 46.984375 203.605469 47.078125 206.15625 C 47.214844 209.488281 49.886719 212.167969 53.144531 212.199219 C 53.179688 212.199219 53.210938 212.199219 53.246094 212.199219 C 55.3125 212.179688 57.375 212.179688 59.453125 212.199219 C 59.484375 212.199219 59.515625 212.199219 59.546875 212.199219 C 62.804688 212.167969 65.476562 209.488281 65.613281 206.148438 C 65.710938 203.601562 65.796875 201.054688 65.875 198.507812 C 67.976562 198.609375 70.074219 198.738281 72.152344 198.90625 C 72.351562 198.921875 72.546875 198.929688 72.742188 198.925781 C 75.882812 198.863281 78.511719 196.460938 78.816406 193.363281 C 79.015625 191.253906 79.203125 189.148438 79.375 187.046875 C 79.644531 183.828125 77.128906 180.886719 73.824219 180.503906 Z M 73.824219 180.503906 " fill-opacity="1" fill-rule="nonzero"/><g clip-path="url(#387244d700)"><path fill="#ffde59" d="M 81.242188 203.199219 C 78.539062 196.75 74.46875 196.378906 70.382812 198.792969 C 66.394531 201.214844 62.386719 206.425781 62.113281 211.210938 C 61.847656 217.042969 63.480469 218.691406 68.703125 221.628906 C 72.859375 223.9375 78.996094 227.785156 79.789062 233.304688 C 79.59375 228.339844 87.175781 225.851562 90.296875 224.457031 C 95.441406 222.214844 100.066406 221.691406 101.902344 215.828125 C 104.0625 209.226562 99.609375 202.148438 94.886719 198.550781 C 89.980469 194.992188 84.808594 194.914062 81.242188 203.199219 Z M 81.242188 203.199219 " fill-opacity="1" fill-rule="nonzero"/></g><g fill="#ffffff" fill-opacity="1"><g transform="translate(18.4547, 52.028548)"><g><path d="M 15.046875 -6.453125 C 15.046875 -4.046875 14.4375 -2.332031 13.21875 -1.3125 C 12 -0.289062 10.265625 0.21875 8.015625 0.21875 C 5.472656 0.21875 3.660156 -0.363281 2.578125 -1.53125 C 1.503906 -2.707031 0.96875 -4.492188 0.96875 -6.890625 L 0.96875 -15.8125 C 0.96875 -15.976562 1.003906 -16.101562 1.078125 -16.1875 C 1.148438 -16.28125 1.253906 -16.328125 1.390625 -16.328125 L 5.5625 -16.328125 C 5.832031 -16.328125 5.96875 -16.171875 5.96875 -15.859375 L 5.96875 -6.359375 C 5.96875 -5.273438 6.175781 -4.488281 6.59375 -4 C 7.007812 -3.519531 7.601562 -3.28125 8.375 -3.28125 C 9.144531 -3.28125 9.765625 -3.519531 10.234375 -4 C 10.703125 -4.488281 10.9375 -5.296875 10.9375 -6.421875 L 10.9375 -15.8125 C 10.9375 -16.15625 11.078125 -16.328125 11.359375 -16.328125 L 14.65625 -16.328125 C 14.914062 -16.328125 15.046875 -16.171875 15.046875 -15.859375 Z M 15.046875 -6.453125 "/></g></g></g><g fill="#ffffff" fill-opacity="1"><g transform="translate(34.467844, 52.028548)"><g><path d="M 1.71875 0 C 1.539062 0 1.398438 -0.0507812 1.296875 -0.15625 C 1.191406 -0.269531 1.140625 -0.421875 1.140625 -0.609375 L 1.140625 -15.8125 C 1.140625 -15.988281 1.175781 -16.117188 1.25 -16.203125 C 1.320312 -16.285156 1.441406 -16.328125 1.609375 -16.328125 L 7.765625 -16.328125 C 7.953125 -16.328125 8.085938 -16.300781 8.171875 -16.25 C 8.253906 -16.195312 8.320312 -16.085938 8.375 -15.921875 L 10.671875 -8.9375 C 10.710938 -8.8125 10.765625 -8.75 10.828125 -8.75 C 10.867188 -8.75 10.910156 -8.8125 10.953125 -8.9375 L 13 -15.6875 C 13.113281 -16.113281 13.3125 -16.328125 13.59375 -16.328125 L 19.953125 -16.328125 C 20.210938 -16.328125 20.34375 -16.171875 20.34375 -15.859375 L 20.34375 -0.640625 C 20.34375 -0.398438 20.285156 -0.234375 20.171875 -0.140625 C 20.066406 -0.046875 19.890625 0 19.640625 0 L 15.921875 0 C 15.703125 0 15.550781 -0.0390625 15.46875 -0.125 C 15.394531 -0.21875 15.359375 -0.359375 15.359375 -0.546875 L 15.359375 -10.421875 C 15.359375 -10.546875 15.328125 -10.609375 15.265625 -10.609375 C 15.191406 -10.609375 15.132812 -10.539062 15.09375 -10.40625 L 11.921875 -0.390625 C 11.816406 -0.128906 11.640625 0 11.390625 0 L 9.09375 0 C 8.820312 0 8.644531 -0.128906 8.5625 -0.390625 L 5.390625 -10.234375 C 5.347656 -10.378906 5.296875 -10.453125 5.234375 -10.453125 C 5.160156 -10.453125 5.125 -10.367188 5.125 -10.203125 L 5.125 -0.484375 C 5.125 -0.296875 5.09375 -0.164062 5.03125 -0.09375 C 4.976562 -0.03125 4.847656 0 4.640625 0 Z M 1.71875 0 "/></g></g></g><g fill="#ffffff" fill-opacity="1"><g transform="translate(55.958016, 52.028548)"><g><path d="M 15.046875 -6.453125 C 15.046875 -4.046875 14.4375 -2.332031 13.21875 -1.3125 C 12 -0.289062 10.265625 0.21875 8.015625 0.21875 C 5.472656 0.21875 3.660156 -0.363281 2.578125 -1.53125 C 1.503906 -2.707031 0.96875 -4.492188 0.96875 -6.890625 L 0.96875 -15.8125 C 0.96875 -15.976562 1.003906 -16.101562 1.078125 -16.1875 C 1.148438 -16.28125 1.253906 -16.328125 1.390625 -16.328125 L 5.5625 -16.328125 C 5.832031 -16.328125 5.96875 -16.171875 5.96875 -15.859375 L 5.96875 -6.359375 C 5.96875 -5.273438 6.175781 -4.488281 6.59375 -4 C 7.007812 -3.519531 7.601562 -3.28125 8.375 -3.28125 C 9.144531 -3.28125 9.765625 -3.519531 10.234375 -4 C 10.703125 -4.488281 10.9375 -5.296875 10.9375 -6.421875 L 10.9375 -15.8125 C 10.9375 -16.15625 11.078125 -16.328125 11.359375 -16.328125 L 14.65625 -16.328125 C 14.914062 -16.328125 15.046875 -16.171875 15.046875 -15.859375 Z M 15.046875 -6.453125 "/></g></g></g><g fill="#ffffff" fill-opacity="1"><g transform="translate(71.97116, 52.028548)"><g><path d="M 1.71875 0 C 1.539062 0 1.398438 -0.0507812 1.296875 -0.15625 C 1.191406 -0.269531 1.140625 -0.421875 1.140625 -0.609375 L 1.140625 -15.8125 C 1.140625 -15.988281 1.175781 -16.117188 1.25 -16.203125 C 1.320312 -16.285156 1.441406 -16.328125 1.609375 -16.328125 L 7.765625 -16.328125 C 7.953125 -16.328125 8.085938 -16.300781 8.171875 -16.25 C 8.253906 -16.195312 8.320312 -16.085938 8.375 -15.921875 L 10.671875 -8.9375 C 10.710938 -8.8125 10.765625 -8.75 10.828125 -8.75 C 10.867188 -8.75 10.910156 -8.8125 10.953125 -8.9375 L 13 -15.6875 C 13.113281 -16.113281 13.3125 -16.328125 13.59375 -16.328125 L 19.953125 -16.328125 C 20.210938 -16.328125 20.34375 -16.171875 20.34375 -15.859375 L 20.34375 -0.640625 C 20.34375 -0.398438 20.285156 -0.234375 20.171875 -0.140625 C 20.066406 -0.046875 19.890625 0 19.640625 0 L 15.921875 0 C 15.703125 0 15.550781 -0.0390625 15.46875 -0.125 C 15.394531 -0.21875 15.359375 -0.359375 15.359375 -0.546875 L 15.359375 -10.421875 C 15.359375 -10.546875 15.328125 -10.609375 15.265625 -10.609375 C 15.191406 -10.609375 15.132812 -10.539062 15.09375 -10.40625 L 11.921875 -0.390625 C 11.816406 -0.128906 11.640625 0 11.390625 0 L 9.09375 0 C 8.820312 0 8.644531 -0.128906 8.5625 -0.390625 L 5.390625 -10.234375 C 5.347656 -10.378906 5.296875 -10.453125 5.234375 -10.453125 C 5.160156 -10.453125 5.125 -10.367188 5.125 -10.203125 L 5.125 -0.484375 C 5.125 -0.296875 5.09375 -0.164062 5.03125 -0.09375 C 4.976562 -0.03125 4.847656 0 4.640625 0 Z M 1.71875 0 "/></g></g></g><g fill="#ffffff" fill-opacity="1"><g transform="translate(12.364049, 30.835775)"><g><path d="M 18 -0.75 C 18.0625 -0.625 18.09375 -0.492188 18.09375 -0.359375 C 18.09375 -0.117188 17.945312 0 17.65625 0 L 12.953125 0 C 12.515625 0 12.222656 -0.160156 12.078125 -0.484375 L 9.125 -7.203125 C 9.0625 -7.296875 9 -7.34375 8.9375 -7.34375 C 8.851562 -7.34375 8.738281 -7.253906 8.59375 -7.078125 L 6.890625 -4.875 C 6.785156 -4.757812 6.734375 -4.582031 6.734375 -4.34375 L 6.734375 -0.703125 C 6.734375 -0.441406 6.671875 -0.257812 6.546875 -0.15625 C 6.421875 -0.0507812 6.21875 0 5.9375 0 L 1.90625 0 C 1.664062 0 1.492188 -0.046875 1.390625 -0.140625 C 1.296875 -0.242188 1.25 -0.398438 1.25 -0.609375 L 1.25 -17.375 C 1.25 -17.550781 1.289062 -17.6875 1.375 -17.78125 C 1.457031 -17.875 1.570312 -17.921875 1.71875 -17.921875 L 6.3125 -17.921875 C 6.59375 -17.921875 6.734375 -17.753906 6.734375 -17.421875 L 6.734375 -11.3125 C 6.734375 -11.113281 6.773438 -11.015625 6.859375 -11.015625 C 6.921875 -11.015625 7.003906 -11.070312 7.109375 -11.1875 L 11.546875 -17.421875 C 11.691406 -17.609375 11.832031 -17.738281 11.96875 -17.8125 C 12.101562 -17.882812 12.304688 -17.921875 12.578125 -17.921875 L 16.25 -17.921875 C 16.445312 -17.921875 16.601562 -17.882812 16.71875 -17.8125 C 16.832031 -17.738281 16.890625 -17.640625 16.890625 -17.515625 C 16.890625 -17.398438 16.847656 -17.300781 16.765625 -17.21875 L 12.796875 -12.375 C 12.691406 -12.238281 12.640625 -12.097656 12.640625 -11.953125 C 12.640625 -11.835938 12.671875 -11.71875 12.734375 -11.59375 Z M 18 -0.75 "/></g></g></g><g fill="#ffffff" fill-opacity="1"><g transform="translate(31.010941, 30.835775)"><g><path d="M 1.25 -17.375 C 1.25 -17.550781 1.289062 -17.6875 1.375 -17.78125 C 1.457031 -17.875 1.570312 -17.921875 1.71875 -17.921875 L 6.3125 -17.921875 C 6.59375 -17.921875 6.734375 -17.753906 6.734375 -17.421875 L 6.734375 -4.296875 C 6.734375 -4.171875 6.753906 -4.082031 6.796875 -4.03125 C 6.835938 -3.988281 6.914062 -3.96875 7.03125 -3.96875 L 14.296875 -3.96875 C 14.671875 -3.96875 14.859375 -3.8125 14.859375 -3.5 L 14.859375 -0.53125 C 14.859375 -0.375 14.804688 -0.242188 14.703125 -0.140625 C 14.597656 -0.046875 14.445312 0 14.25 0 L 1.90625 0 C 1.664062 0 1.492188 -0.046875 1.390625 -0.140625 C 1.296875 -0.242188 1.25 -0.398438 1.25 -0.609375 Z M 1.25 -17.375 "/></g></g></g><g fill="#ffffff" fill-opacity="1"><g transform="translate(46.541963, 30.835775)"><g><path d="M 6.3125 -17.921875 C 6.59375 -17.921875 6.734375 -17.753906 6.734375 -17.421875 L 6.734375 -0.703125 C 6.734375 -0.441406 6.671875 -0.257812 6.546875 -0.15625 C 6.421875 -0.0507812 6.21875 0 5.9375 0 L 1.90625 0 C 1.664062 0 1.492188 -0.046875 1.390625 -0.140625 C 1.296875 -0.242188 1.25 -0.398438 1.25 -0.609375 L 1.25 -17.375 C 1.25 -17.550781 1.289062 -17.6875 1.375 -17.78125 C 1.457031 -17.875 1.570312 -17.921875 1.71875 -17.921875 Z M 6.3125 -17.921875 "/></g></g></g><g fill="#ffffff" fill-opacity="1"><g transform="translate(54.536939, 30.835775)"><g><path d="M 16.765625 -17.921875 C 17.003906 -17.921875 17.125 -17.785156 17.125 -17.515625 L 17.125 -0.4375 C 17.125 -0.300781 17.070312 -0.191406 16.96875 -0.109375 C 16.863281 -0.0351562 16.734375 0 16.578125 0 L 13.265625 0 C 13.117188 0 13 -0.0195312 12.90625 -0.0625 C 12.820312 -0.113281 12.722656 -0.210938 12.609375 -0.359375 L 5.96875 -9.375 C 5.90625 -9.457031 5.847656 -9.488281 5.796875 -9.46875 C 5.742188 -9.445312 5.71875 -9.398438 5.71875 -9.328125 L 5.71875 -0.53125 C 5.738281 -0.332031 5.703125 -0.191406 5.609375 -0.109375 C 5.523438 -0.0351562 5.367188 0 5.140625 0 L 1.859375 0 C 1.453125 0 1.25 -0.160156 1.25 -0.484375 L 1.25 -17.375 C 1.25 -17.738281 1.425781 -17.921875 1.78125 -17.921875 L 5.71875 -17.921875 C 5.9375 -17.921875 6.097656 -17.890625 6.203125 -17.828125 C 6.304688 -17.773438 6.421875 -17.660156 6.546875 -17.484375 L 12.34375 -9.421875 C 12.4375 -9.273438 12.523438 -9.203125 12.609375 -9.203125 C 12.691406 -9.203125 12.734375 -9.304688 12.734375 -9.515625 L 12.734375 -17.421875 C 12.734375 -17.753906 12.910156 -17.921875 13.265625 -17.921875 Z M 16.765625 -17.921875 "/></g></g></g><g fill="#ffffff" fill-opacity="1"><g transform="translate(72.918136, 30.835775)"><g><path d="M 6.3125 -17.921875 C 6.59375 -17.921875 6.734375 -17.753906 6.734375 -17.421875 L 6.734375 -0.703125 C 6.734375 -0.441406 6.671875 -0.257812 6.546875 -0.15625 C 6.421875 -0.0507812 6.21875 0 5.9375 0 L 1.90625 0 C 1.664062 0 1.492188 -0.046875 1.390625 -0.140625 C 1.296875 -0.242188 1.25 -0.398438 1.25 -0.609375 L 1.25 -17.375 C 1.25 -17.550781 1.289062 -17.6875 1.375 -17.78125 C 1.457031 -17.875 1.570312 -17.921875 1.71875 -17.921875 Z M 6.3125 -17.921875 "/></g></g></g><g fill="#ffffff" fill-opacity="1"><g transform="translate(80.913113, 30.835775)"><g><path d="M 18 -0.75 C 18.0625 -0.625 18.09375 -0.492188 18.09375 -0.359375 C 18.09375 -0.117188 17.945312 0 17.65625 0 L 12.953125 0 C 12.515625 0 12.222656 -0.160156 12.078125 -0.484375 L 9.125 -7.203125 C 9.0625 -7.296875 9 -7.34375 8.9375 -7.34375 C 8.851562 -7.34375 8.738281 -7.253906 8.59375 -7.078125 L 6.890625 -4.875 C 6.785156 -4.757812 6.734375 -4.582031 6.734375 -4.34375 L 6.734375 -0.703125 C 6.734375 -0.441406 6.671875 -0.257812 6.546875 -0.15625 C 6.421875 -0.0507812 6.21875 0 5.9375 0 L 1.90625 0 C 1.664062 0 1.492188 -0.046875 1.390625 -0.140625 C 1.296875 -0.242188 1.25 -0.398438 1.25 -0.609375 L 1.25 -17.375 C 1.25 -17.550781 1.289062 -17.6875 1.375 -17.78125 C 1.457031 -17.875 1.570312 -17.921875 1.71875 -17.921875 L 6.3125 -17.921875 C 6.59375 -17.921875 6.734375 -17.753906 6.734375 -17.421875 L 6.734375 -11.3125 C 6.734375 -11.113281 6.773438 -11.015625 6.859375 -11.015625 C 6.921875 -11.015625 7.003906 -11.070312 7.109375 -11.1875 L 11.546875 -17.421875 C 11.691406 -17.609375 11.832031 -17.738281 11.96875 -17.8125 C 12.101562 -17.882812 12.304688 -17.921875 12.578125 -17.921875 L 16.25 -17.921875 C 16.445312 -17.921875 16.601562 -17.882812 16.71875 -17.8125 C 16.832031 -17.738281 16.890625 -17.640625 16.890625 -17.515625 C 16.890625 -17.398438 16.847656 -17.300781 16.765625 -17.21875 L 12.796875 -12.375 C 12.691406 -12.238281 12.640625 -12.097656 12.640625 -11.953125 C 12.640625 -11.835938 12.671875 -11.71875 12.734375 -11.59375 Z M 18 -0.75 "/></g></g></g></svg>